<svg id="Layer_1" data-name="Layer 1" xmlns="http://www.w3.org/2000/svg" viewBox="0 0 191.77 102.44"><defs><style>.cls-1{opacity:0.4;}.cls-2{fill:#f2f2f2;}</style></defs><title>KODACompLightBackgroundLogo</title><g class="cls-1"><polygon class="cls-2" points="80.63 50.56 66.25 36.19 66.24 36.2 29.98 0 0 0 51.22 51.22 0 102.44 29.98 102.44 66.24 66.24 66.25 66.25 80.63 51.87 81.29 51.22 81.29 51.22 81.29 51.22 80.63 50.56"/><polygon class="cls-2" points="140.57 51.22 140.57 51.22 140.57 51.22 140.56 51.21 191.77 0 161.8 0 125.54 36.19 125.53 36.19 125.53 36.19 125.52 36.19 125.51 36.19 89.26 0 59.28 0 110.49 51.21 110.49 51.22 110.49 51.22 110.49 51.22 110.49 51.23 59.28 102.44 89.26 102.44 125.51 66.25 125.52 66.25 125.53 66.25 125.53 66.25 125.54 66.25 161.8 102.44 191.77 102.44 140.56 51.23 140.57 51.22"/></g></svg>