<svg id="Layer_1" data-name="Layer 1" xmlns="http://www.w3.org/2000/svg" viewBox="0 0 194.19 103.44"><defs><style>.cls-1{fill:#fff;stroke:#fff;stroke-miterlimit:10;}</style></defs><title>KODAXLogo</title><polygon class="cls-1" points="81.84 51.06 67.46 36.69 67.45 36.7 31.18 0.5 1.21 0.5 52.43 51.72 1.21 102.94 31.18 102.94 67.45 66.74 67.46 66.75 81.84 52.37 82.49 51.72 82.49 51.72 82.49 51.72 81.84 51.06"/><polygon class="cls-1" points="141.78 51.72 141.78 51.72 141.78 51.72 141.77 51.71 192.98 0.5 163 0.5 126.75 36.69 126.74 36.69 126.73 36.69 126.73 36.69 126.72 36.69 90.47 0.5 60.49 0.5 111.7 51.71 111.69 51.72 111.69 51.72 111.69 51.72 111.7 51.73 60.49 102.94 90.47 102.94 126.72 66.75 126.73 66.75 126.73 66.75 126.74 66.75 126.75 66.75 163 102.94 192.98 102.94 141.77 51.73 141.78 51.72"/></svg>